<svg width="41" height="40" viewBox="0 0 41 40" fill="none" xmlns="http://www.w3.org/2000/svg">
<g clip-path="url(#clip0_4_65)">
<path d="M38.9613 28.201H27.4063C27.2353 28.201 27.0661 28.2347 26.9082 28.3001C26.7503 28.3655 26.6068 28.4614 26.4859 28.5823C26.365 28.7031 26.2692 28.8466 26.2038 29.0045C26.1383 29.1625 26.1047 29.3317 26.1047 29.5026C26.1047 29.6736 26.1383 29.8428 26.2038 30.0007C26.2692 30.1586 26.365 30.3021 26.4859 30.423C26.6068 30.5439 26.7503 30.6397 26.9082 30.7051C27.0661 30.7706 27.2353 30.8042 27.4063 30.8042C27.4852 30.8042 27.5612 30.7942 27.6362 30.7812L27.6293 30.8042L27.9056 36.88C27.9486 37.8337 28.7651 38.6137 29.7196 38.6137H36.6614C37.6159 38.6137 38.4324 37.8337 38.4758 36.88L38.7518 30.8042L38.7453 30.7825C38.816 30.7942 38.8871 30.8042 38.9613 30.8042C39.1322 30.8042 39.3015 30.7706 39.4594 30.7051C39.6173 30.6397 39.7608 30.5439 39.8817 30.423C40.0025 30.3021 40.0984 30.1586 40.1638 30.0007C40.2292 29.8428 40.2629 29.6736 40.2629 29.5026C40.2629 29.3317 40.2292 29.1625 40.1638 29.0045C40.0984 28.8466 40.0025 28.7031 39.8817 28.5823C39.7608 28.4614 39.6173 28.3655 39.4594 28.3001C39.3015 28.2347 39.1322 28.201 38.9613 28.201Z" fill="#E1E8ED"/>
<path d="M37.8189 30.8042V38.1751C38.1933 37.8567 38.4454 37.3959 38.4662 36.8796L38.7613 30.8042H37.8189ZM35.2158 30.8042H36.5173V38.6138H35.2158V30.8042ZM32.6126 38.6138V30.8042H33.9142V38.6138H32.6126ZM30.0094 30.8042H31.311V38.6138H30.0094V30.8042ZM27.6197 30.8042L27.9147 36.8796C27.9381 37.4618 28.2514 37.9764 28.7078 38.2914V30.8042H27.6197Z" fill="#DA2F47"/>
<path opacity="0.6" d="M27.6197 30.8042L27.6618 31.672H38.7188L38.7613 30.8042H27.6197Z" fill="#99AAB5"/>
<path d="M38.7999 28.2314C38.8186 28.1516 38.8307 28.0696 38.8307 27.9841C38.8307 27.6917 38.7136 27.427 38.5253 27.2322C38.7084 27.1168 38.8307 26.9146 38.8307 26.6825C38.8306 26.5762 38.8044 26.4716 38.7544 26.3777C38.7045 26.2839 38.6323 26.2037 38.5442 26.1442C38.4561 26.0847 38.3548 26.0477 38.2491 26.0364C38.1434 26.0251 38.0365 26.0399 37.9379 26.0794C37.9083 25.9701 37.8506 25.8705 37.7705 25.7904C37.6904 25.7103 37.5908 25.6526 37.4814 25.623C37.521 25.5243 37.5357 25.4175 37.5245 25.3118C37.5132 25.2061 37.4761 25.1048 37.4166 25.0167C37.3572 24.9286 37.277 24.8564 37.1831 24.8065C37.0893 24.7565 36.9847 24.7303 36.8784 24.7301C36.7955 24.7301 36.717 24.7471 36.6441 24.7753C36.6221 24.6313 36.5713 24.4933 36.4947 24.3694C36.4181 24.2456 36.3173 24.1385 36.1983 24.0545C36.0794 23.9705 35.9447 23.9114 35.8024 23.8807C35.66 23.85 35.513 23.8483 35.37 23.8757C35.227 23.9032 35.091 23.9592 34.9701 24.0404C34.8493 24.1217 34.746 24.2265 34.6666 24.3485C34.5872 24.4706 34.5333 24.6074 34.508 24.7508C34.4827 24.8942 34.4866 25.0412 34.5195 25.1831C34.2418 25.2321 34.0032 25.3866 33.8413 25.6035C33.7411 25.4675 33.6104 25.3569 33.4597 25.2806C33.309 25.2042 33.1425 25.1643 32.9736 25.164C32.6859 25.164 32.41 25.2783 32.2066 25.4817C32.0032 25.6851 31.8889 25.961 31.8889 26.2487L31.8894 26.2539C31.756 26.1517 31.6003 26.0824 31.4351 26.0517C31.3895 25.8026 31.2579 25.5773 31.0634 25.4152C30.8689 25.253 30.6237 25.1641 30.3704 25.164C30.1165 25.1642 29.8708 25.2536 29.6761 25.4165C29.4814 25.5795 29.3502 25.8057 29.3053 26.0556C29.2272 26.0415 29.1482 26.0335 29.0688 26.0317C28.6661 26.0317 28.2799 26.1917 27.9951 26.4765C27.7103 26.7613 27.5503 27.1475 27.5503 27.5502C27.5503 27.7867 27.6089 28.0075 27.7052 28.2071C27.5358 28.2186 27.3776 28.296 27.2646 28.4228C27.1517 28.5496 27.093 28.7157 27.1011 28.8853C27.1092 29.0549 27.1835 29.2146 27.3081 29.33C27.4326 29.4454 27.5975 29.5074 27.7673 29.5026H38.6138C38.7703 29.5036 38.9219 29.4481 39.0406 29.3461C39.1593 29.2442 39.2372 29.1028 39.2599 28.948C39.2825 28.7931 39.2485 28.6353 39.1639 28.5037C39.0794 28.372 38.9501 28.2753 38.7999 28.2314Z" fill="#FFD983"/>
<path d="M37.5291 27.3333C37.7687 27.3333 37.9629 27.1391 37.9629 26.8994C37.9629 26.6598 37.7687 26.4656 37.5291 26.4656C37.2895 26.4656 37.0952 26.6598 37.0952 26.8994C37.0952 27.1391 37.2895 27.3333 37.5291 27.3333Z" fill="#FFAC33"/>
<path d="M36.0106 26.4656C36.37 26.4656 36.6614 26.1742 36.6614 25.8148C36.6614 25.4554 36.37 25.164 36.0106 25.164C35.6512 25.164 35.3598 25.4554 35.3598 25.8148C35.3598 26.1742 35.6512 26.4656 36.0106 26.4656Z" fill="#FFAC33"/>
<path d="M30.5873 26.8995C30.8269 26.8995 31.0212 26.7052 31.0212 26.4656C31.0212 26.226 30.8269 26.0317 30.5873 26.0317C30.3477 26.0317 30.1534 26.226 30.1534 26.4656C30.1534 26.7052 30.3477 26.8995 30.5873 26.8995Z" fill="#FFAC33"/>
<path d="M38.8307 28.8518C38.8307 28.698 38.7761 28.5491 38.6766 28.4317C38.5771 28.3144 38.4392 28.2362 38.2874 28.211C38.1356 28.1858 37.9798 28.2154 37.8478 28.2944C37.7158 28.3733 37.616 28.4966 37.5664 28.6423C37.5538 28.6414 37.5426 28.6349 37.5291 28.6349C37.414 28.6349 37.3037 28.6806 37.2223 28.762C37.141 28.8433 37.0952 28.9537 37.0952 29.0688H38.7908C38.8151 29.0006 38.8307 28.9282 38.8307 28.8518ZM29.5026 28.6349C29.5886 28.6349 29.6697 28.6522 29.7447 28.6826C29.7852 28.53 29.8799 28.3974 30.0111 28.3096C30.1422 28.2218 30.3009 28.1848 30.4574 28.2056C30.6139 28.2263 30.7575 28.3034 30.8612 28.4223C30.965 28.5413 31.0219 28.694 31.0212 28.8518C31.0212 28.9282 31.0055 29.0006 30.9813 29.0688H32.7965C32.7708 28.9993 32.7573 28.9259 32.7566 28.8518C32.7566 28.6792 32.8252 28.5137 32.9472 28.3916C33.0693 28.2696 33.2348 28.201 33.4074 28.201C33.5102 28.201 33.6066 28.2271 33.6929 28.2696C33.6484 28.181 33.6249 28.0833 33.6243 27.9841C33.624 27.888 33.6449 27.7929 33.6856 27.7059C33.7264 27.6188 33.7859 27.5418 33.8599 27.4805C33.9339 27.4191 34.0206 27.375 34.1137 27.3511C34.2069 27.3273 34.3041 27.3244 34.3985 27.3426C34.4929 27.3608 34.5821 27.3997 34.6596 27.4565C34.7372 27.5133 34.8012 27.5866 34.8471 27.6711C34.8929 27.7556 34.9195 27.8492 34.9249 27.9451C34.9303 28.0411 34.9143 28.1371 34.8782 28.2262C35.155 28.3008 35.3598 28.5512 35.3598 28.8518C35.3598 28.9282 35.3442 29.0006 35.3199 29.0688H36.6076L36.362 28.8518C36.5442 28.6926 36.6614 28.4618 36.6614 28.201C36.6614 27.9709 36.57 27.7502 36.4072 27.5875C36.2445 27.4247 36.0238 27.3333 35.7937 27.3333C35.6358 27.334 35.4812 27.3781 35.3468 27.4609C35.3533 27.4188 35.3598 27.3771 35.3598 27.3333C35.3602 27.1351 35.2926 26.9428 35.1684 26.7885C35.0442 26.6341 34.8708 26.5269 34.6771 26.4849C34.4834 26.4429 34.2812 26.4685 34.1042 26.5575C33.9271 26.6466 33.786 26.7936 33.7042 26.9741C33.6127 26.9258 33.5109 26.9002 33.4074 26.8994C33.3011 26.8996 33.1965 26.9258 33.1026 26.9758C33.0088 27.0257 32.9286 27.0979 32.8691 27.186C32.8096 27.2741 32.7726 27.3754 32.7613 27.4811C32.75 27.5868 32.7648 27.6937 32.8043 27.7923C32.5275 27.8674 32.3228 28.1177 32.3228 28.418C32.3228 28.5039 32.3401 28.585 32.3705 28.6601C32.2721 28.6866 32.1815 28.7359 32.1058 28.8041C31.9873 28.6956 31.8326 28.6353 31.672 28.6349C31.5691 28.6349 31.4728 28.6609 31.386 28.7039C31.429 28.6171 31.455 28.5208 31.455 28.418C31.4549 28.3117 31.4287 28.207 31.3787 28.1132C31.3288 28.0193 31.2566 27.9392 31.1685 27.8797C31.0804 27.8202 30.9791 27.7832 30.8734 27.7719C30.7677 27.7606 30.6608 27.7753 30.5621 27.8149C30.5392 27.7294 30.499 27.6494 30.444 27.58C30.389 27.5106 30.3204 27.4532 30.2423 27.4113C30.1643 27.3694 30.0785 27.3439 29.9903 27.3364C29.9021 27.3289 29.8132 27.3395 29.7292 27.3676C29.6452 27.3957 29.5679 27.4407 29.502 27.4998C29.436 27.559 29.3829 27.6309 29.3458 27.7114C29.3087 27.7918 29.2885 27.879 29.2864 27.9675C29.2843 28.056 29.3003 28.1441 29.3334 28.2262C29.2351 28.2527 29.1444 28.302 29.0688 28.3702C28.9503 28.2618 28.7956 28.2014 28.6349 28.201C28.4623 28.201 28.2968 28.2696 28.1747 28.3916C28.0527 28.5137 27.9841 28.6792 27.9841 28.8518C27.9841 28.9282 27.9997 29.0006 28.024 29.0688H28.8918C28.9816 28.8167 29.2198 28.6349 29.5026 28.6349Z" fill="#FFAC33"/>
<path d="M27.1165 29.0688V29.5026C27.1165 29.6177 27.1622 29.728 27.2435 29.8094C27.3249 29.8908 27.4353 29.9365 27.5503 29.9365H38.8307C38.9458 29.9365 39.0562 29.8908 39.1375 29.8094C39.2189 29.728 39.2646 29.6177 39.2646 29.5026V29.0688H27.1165Z" fill="white"/>
</g>
<path d="M35.2928 8.43429L29.9432 1.52286L37.6161 0L39.1389 7.65333L35.2928 8.43429ZM29.5527 9.54714L24.2032 2.65524L20.357 3.41667L25.7261 10.3086L29.5527 9.54714ZM34.0237 21.1248C36.1713 21.1248 38.1628 21.7105 39.8808 22.7062V15.2676H0.833226V34.7914C0.833226 35.827 1.24462 36.8202 1.9769 37.5525C2.70919 38.2848 3.70238 38.6962 4.73799 38.6962H23.8908C22.8951 36.9781 22.3094 34.9867 22.3094 32.839C22.3094 26.3767 27.5613 21.1248 34.0237 21.1248ZM5.05037 6.4819L3.13704 6.85286C2.12459 7.05933 1.23459 7.65716 0.660578 8.51634C0.0865694 9.37553 -0.125029 10.4266 0.0717976 11.441L0.833226 15.2676L10.3999 13.3738L5.05037 6.4819ZM19.9861 11.4605L14.6366 4.52952L10.7904 5.33L16.1594 12.2219L19.9861 11.4605Z" fill="#222222"/>
<defs>
<clipPath id="clip0_4_65">
<rect width="15.619" height="15.619" fill="white" transform="translate(25.381 23.4286)"/>
</clipPath>
</defs>
</svg>
